<svg xmlns="http://www.w3.org/2000/svg" width="34" height="34" viewBox="0 0 34 34" fill="none">
  <path d="M6.74617 11.8862C6.70896 11.8862 6.67212 11.8935 6.63774 11.9077C6.60336 11.922 6.57213 11.9429 6.54582 11.9692C6.51951 11.9955 6.49864 12.0267 6.4844 12.0611C6.47016 12.0955 6.46283 12.1323 6.46283 12.1695V15.5341C6.46283 15.6899 6.59033 15.8174 6.74617 15.8174H10.6477C11.1692 15.8174 11.6693 15.6103 12.0381 15.2415C12.4068 14.8727 12.614 14.3726 12.614 13.8511C12.614 13.3296 12.4068 12.8295 12.0381 12.4607C11.6693 12.0919 11.1692 11.8848 10.6477 11.8848L6.74617 11.8862ZM6.74617 18.3391C6.70896 18.3391 6.67212 18.3464 6.63774 18.3607C6.60336 18.3749 6.57213 18.3958 6.54582 18.4221C6.51951 18.4484 6.49864 18.4796 6.4844 18.514C6.47016 18.5484 6.46283 18.5852 6.46283 18.6224V22.6939C6.46283 22.8498 6.59033 22.9773 6.74617 22.9773H10.8998C11.5149 22.9773 12.1048 22.7329 12.5397 22.298C12.9746 21.8631 13.2189 21.2732 13.2189 20.6582C13.2189 20.0431 12.9746 19.4533 12.5397 19.0183C12.1048 18.5834 11.5149 18.3391 10.8998 18.3391H6.74617ZM22.8608 18.5403C22.8277 18.5403 22.796 18.5271 22.7726 18.5038C22.7492 18.4804 22.7361 18.4487 22.7361 18.4156C22.7361 17.0358 23.8538 15.918 25.2323 15.918H25.7848C27.1632 15.918 28.2809 17.0372 28.2809 18.4156C28.2809 18.4836 28.2243 18.5403 28.1562 18.5403H22.8608Z" fill="white"/>
  <path fill-rule="evenodd" clip-rule="evenodd" d="M17.8075 16.9899C17.717 16.8761 17.6225 16.7655 17.5242 16.6584C18.1376 15.6908 18.4492 14.5618 18.4195 13.4185C18.4452 12.4338 18.2481 11.4561 17.8429 10.5583C17.4478 9.66576 16.8164 8.89817 16.0168 8.33834L16.0012 8.327C15.2471 7.80944 14.3921 7.45703 13.4923 7.29284C12.6281 7.11373 11.747 7.02823 10.8644 7.03784H2.83333C2.26975 7.03784 1.72925 7.26172 1.33073 7.66024C0.932216 8.05875 0.708333 8.59925 0.708333 9.16284V26.1019C0.708333 26.6655 0.932216 27.206 1.33073 27.6045C1.72925 28.003 2.26975 28.2269 2.83333 28.2269H11.05C11.9822 28.2269 12.9087 28.1093 13.8097 27.8756C14.7355 27.6362 15.6127 27.2379 16.4022 26.6983L16.4121 26.6913C17.1998 26.1458 17.8537 25.429 18.3246 24.5946C18.6359 25.192 19.0204 25.7483 19.4692 26.2507C20.2314 27.0723 21.1692 27.7098 22.2119 28.1235L22.2374 28.1334C23.3081 28.5398 24.4455 28.7416 25.5907 28.7284C27.2383 28.7703 28.863 28.3359 30.2699 27.4775C31.8137 26.4289 32.9289 24.8601 33.4121 23.0575C33.5036 22.714 33.5075 22.3531 33.4234 22.0078C33.5821 21.7343 33.6827 21.4227 33.7067 21.0883C33.7869 19.9659 33.6908 18.8378 33.422 17.745L33.4192 17.7365C33.1448 16.6405 32.665 15.6065 32.0053 14.6893L31.9841 14.6581C31.2758 13.7094 30.3593 12.9359 29.3052 12.3971C28.173 11.841 26.9256 11.5595 25.6643 11.5754C24.5118 11.5702 23.3696 11.7936 22.304 12.2328L22.2898 12.2384C21.2879 12.6599 20.3797 13.2762 19.618 14.0518L19.601 14.0673C18.8364 14.8635 18.2442 15.8087 17.8613 16.844L17.8599 16.8468C17.842 16.8944 17.8245 16.9421 17.8075 16.9899ZM13.923 16.8908C14.8774 17.1213 15.7154 17.6914 16.2803 18.4944C16.8055 19.292 17.0735 20.2315 17.0482 21.1861C17.0716 21.9576 16.9001 22.7226 16.5495 23.4103C16.2336 24.0237 15.7703 24.5507 15.2037 24.9445C14.6165 25.3454 13.9641 25.6411 13.2756 25.8186C12.5492 26.0068 11.8018 26.102 11.0514 26.1019H2.83333V9.16284H10.8772C11.6195 9.15371 12.3606 9.22591 13.0872 9.37817C13.7006 9.48725 14.2842 9.72667 14.7985 10.0794C15.283 10.4194 15.6655 10.8841 15.9035 11.4253C16.1868 12.05 16.32 12.7328 16.2931 13.4185C16.3233 14.1705 16.1209 14.9135 15.7137 15.5463C15.2717 16.1413 14.6087 16.606 13.923 16.8908ZM22.6695 21.2413C22.6648 21.1403 22.6648 21.0392 22.6695 20.9382H31.5874C31.6529 20.0368 31.5754 19.1308 31.3579 18.2536C31.1492 17.418 30.7838 16.6296 30.2812 15.9303C29.774 15.2515 29.1197 14.6965 28.3673 14.3068C27.5296 13.8949 26.6062 13.6875 25.6728 13.7018C24.7955 13.6953 23.9257 13.8638 23.1143 14.1977C22.3706 14.5108 21.6977 14.9669 21.1338 15.5407C20.5711 16.1259 20.1352 16.8208 19.8532 17.5821C19.5515 18.403 19.4013 19.2718 19.4097 20.1463C19.3956 21.0331 19.5415 21.9157 19.8404 22.7515C20.0954 23.508 20.4977 24.2064 21.0262 24.8057C21.573 25.3936 22.2445 25.8526 22.9925 26.1473C23.8268 26.4644 24.7138 26.6197 25.6062 26.6048C26.8578 26.6435 28.0934 26.3167 29.1621 25.6642C30.2398 24.901 31.0166 23.7849 31.3579 22.5093H28.3801C28.2209 22.9313 27.9278 23.2896 27.5457 23.5293C27.0273 23.8717 26.4157 24.0454 25.7947 24.0265C25.3835 24.0691 24.968 24.0267 24.5739 23.9019C24.1798 23.7771 23.8156 23.5727 23.5039 23.3012C22.9981 22.7308 22.7031 22.0043 22.6681 21.2428" fill="white"/>
  <path d="M28.9666 9.061C28.9651 8.91169 28.9047 8.76901 28.7986 8.66396C28.6925 8.55892 28.5492 8.49999 28.3999 8.5H22.6978C22.5475 8.5 22.4034 8.5597 22.2971 8.66597C22.1909 8.77224 22.1312 8.91638 22.1312 9.06667V10.5825C22.1312 10.6569 22.1458 10.7306 22.1743 10.7994C22.2028 10.8681 22.2445 10.9306 22.2971 10.9832C22.3498 11.0358 22.4122 11.0776 22.481 11.106C22.5497 11.1345 22.6234 11.1492 22.6978 11.1492H28.4155C28.4904 11.1492 28.5646 11.1343 28.6337 11.1055C28.7028 11.0767 28.7655 11.0344 28.8182 10.9812C28.8709 10.928 28.9125 10.8648 28.9407 10.7954C28.9688 10.726 28.9829 10.6517 28.9822 10.5768L28.9666 9.061Z" fill="white"/>
</svg>