<svg xmlns="http://www.w3.org/2000/svg" width="19" height="20" viewBox="0 0 19 20" fill="none">
<path d="M9.26317 0.526306L10.0684 6.47209L13.3737 1.4645L11.5194 7.17084L16.67 4.09325L12.5234 8.42993L18.4993 7.8919L12.8818 9.99999L18.4993 12.1081L12.5234 11.5701L16.67 15.9067L11.5194 12.8291L13.3737 18.5355L10.0684 13.5279L9.26317 19.4737L8.45795 13.5279L5.1527 18.5355L7.007 12.8291L1.85635 15.9067L6.0029 11.5701L0.0270147 12.1081L5.64455 9.99999L0.0270147 7.8919L6.0029 8.42993L1.85635 4.09325L7.007 7.17084L5.1527 1.4645L8.45795 6.47209L9.26317 0.526306Z" fill="#825DDA"/>
</svg>