<svg xmlns="http://www.w3.org/2000/svg" width="48" height="51" viewBox="0 0 48 51" fill="none">
<path d="M22.1077 3.69218C24.0466 6.29683 29.3584 14.0369 29.3584 14.0369L34.9227 21.8139C34.9227 21.8139 35.2751 17.992 36.3153 15.8298C38.1691 11.9761 43.6984 9.43435 43.6484 13.2945C40.7414 19.0568 42.7283 28.3724 42.7088 33.7841C42.5239 35.0463 41.9321 39.085 36.3594 43.6831C34.3335 45.1911 24.4937 52.5159 17.0275 41.8817C14.0854 37.3252 9.24134 29.9116 4.18191 22.2084C3.5356 21.3403 3.87496 17.2646 8.597 18.4721C7.73523 17.3145 6.65806 15.8675 5.83333 14.4575C4.75611 13.0104 6.17923 8.57782 10.5748 10.2532C9.92852 9.38504 9.9532 9.21663 9.31922 8.2643C7.41729 5.40731 11.1861 0.802736 14.781 4.42348C15.2118 5.00239 16.289 6.44943 16.9353 7.31756C15.2858 4.49761 18.7282 0.360838 22.1077 3.69218Z" fill="url(#paint0_linear_5_70)"/>
<path fill-rule="evenodd" clip-rule="evenodd" d="M19.666 1.94706C20.5896 1.99082 21.5518 2.42777 22.4659 3.32885C22.4844 3.34709 22.5015 3.36671 22.517 3.38755C23.4924 4.69789 25.3101 7.29139 26.8792 9.55022C27.6648 10.6812 28.3898 11.7306 28.9183 12.4972C29.1825 12.8806 29.3977 13.1933 29.5469 13.4102L29.7763 13.744L34.5785 20.4559C34.6192 20.1791 34.6683 19.8708 34.7266 19.5433C34.9461 18.3099 35.3035 16.756 35.8555 15.6086C36.839 13.5642 38.7831 11.8759 40.5085 11.1949C41.3608 10.8585 42.2674 10.7265 42.9947 11.0554C43.7834 11.412 44.1727 12.2137 44.1587 13.3012C44.1576 13.3788 44.139 13.4551 44.104 13.5244C42.7127 16.2821 42.4752 19.9383 42.6057 23.6529C42.6659 25.365 42.8029 27.0687 42.9327 28.6837C42.9431 28.8127 42.9534 28.9413 42.9637 29.0692C43.1015 30.7894 43.224 32.408 43.2191 33.786C43.219 33.8101 43.2172 33.8342 43.2137 33.8581C43.1181 34.5106 42.9141 35.8974 42.0113 37.7101C41.1097 39.5205 39.5219 41.7352 36.6841 44.0767C36.6776 44.0821 36.6709 44.0874 36.6641 44.0924L36.6554 44.0989C35.6333 44.8597 32.5906 47.1248 28.8285 47.8371C26.9315 48.1963 24.838 48.1637 22.7269 47.3366C20.6144 46.509 18.524 44.9012 16.6099 42.1749C16.6061 42.1695 16.6024 42.164 16.5988 42.1585C13.6592 37.6059 8.81923 30.1984 3.76252 22.4993C3.50833 22.1472 3.40913 21.5998 3.4251 21.0732C3.44202 20.5147 3.59014 19.8723 3.94049 19.2967C4.2956 18.7132 4.85456 18.2066 5.66456 17.9398C6.16971 17.7734 6.75687 17.7053 7.43329 17.7571C6.74922 16.8215 6.0129 15.772 5.40613 14.7376C5.05108 14.2437 4.93725 13.5671 4.99325 12.9111C5.05117 12.2326 5.29491 11.5067 5.7365 10.888C6.18132 10.2648 6.83154 9.74535 7.6925 9.50797C8.21225 9.36467 8.79242 9.32861 9.43014 9.42157C9.2976 9.18796 9.15469 8.9379 8.89452 8.54708C7.77556 6.86623 8.34567 4.72659 9.64439 3.53833C10.3064 2.9326 11.1823 2.54567 12.1637 2.58455C13.1477 2.62353 14.1736 3.08757 15.1431 4.06403C15.1601 4.08117 15.1759 4.09951 15.1903 4.11889C15.3777 4.37061 15.6872 4.78647 16.0304 5.24751C16.1526 4.30642 16.6181 3.42822 17.2941 2.81911C17.9198 2.25539 18.7433 1.90334 19.666 1.94706ZM35.4308 21.8609C35.4112 22.073 35.2618 22.2507 35.0562 22.3064C34.8505 22.3621 34.6318 22.2842 34.5078 22.1108L28.9435 14.3338L28.9378 14.3256L29.3585 14.0369C28.9378 14.3256 28.9378 14.3257 28.9378 14.3256L28.706 13.9884C28.5571 13.7718 28.3421 13.4594 28.0781 13.0764C27.5501 12.3104 26.8258 11.2621 26.0411 10.1324C24.4824 7.88848 22.6913 5.33319 21.7221 4.02877C20.9566 3.28408 20.2312 2.99545 19.6177 2.96638C18.996 2.93692 18.4284 3.17069 17.9772 3.57723C17.0537 4.40932 16.6902 5.88802 17.3758 7.05998C17.5125 7.29375 17.4428 7.59363 17.2169 7.74309C16.9911 7.89256 16.6878 7.83953 16.5261 7.62229C15.8905 6.76864 14.8384 5.35523 14.3938 4.75786C13.5749 3.94269 12.7909 3.63066 12.1234 3.60422C11.4465 3.5774 10.825 3.84128 10.3332 4.29122C9.32433 5.21432 8.961 6.80545 9.74397 7.98159C10.0323 8.41474 10.1915 8.69541 10.3292 8.93831C10.3483 8.97199 10.367 9.00495 10.3856 9.03748C10.5316 9.29331 10.6758 9.53443 10.9841 9.94851C11.1196 10.1305 11.1187 10.38 10.9818 10.561C10.845 10.7419 10.6051 10.8108 10.3931 10.73C9.37354 10.3414 8.57299 10.3238 7.96374 10.4917C7.35527 10.6595 6.89286 11.0245 6.5671 11.4809C6.23811 11.9418 6.05332 12.4906 6.01002 12.9979C5.96573 13.5167 6.07319 13.9252 6.24264 14.1528C6.25388 14.1679 6.26428 14.1836 6.27379 14.1999C7.08176 15.5813 8.14132 17.0056 9.00629 18.1674C9.13537 18.3408 9.14119 18.5767 9.02083 18.7563C8.90046 18.9358 8.68003 19.02 8.47062 18.9665C7.35573 18.6814 6.55248 18.7218 5.98379 18.9091C5.42228 19.094 5.0514 19.4342 4.81221 19.8272C4.56826 20.228 4.45758 20.6919 4.44509 21.1041C4.43184 21.5411 4.52974 21.8212 4.5912 21.9038C4.59718 21.9118 4.60291 21.92 4.6084 21.9284C9.66492 29.6271 14.507 37.0377 17.4507 41.5966C19.2681 44.1823 21.2054 45.6445 23.0991 46.3865C24.9962 47.1297 26.8892 47.1657 28.6386 46.8344C32.1469 46.1702 35.0228 44.042 36.0444 43.2815C38.7731 41.028 40.2651 38.9273 41.0978 37.2552C41.9142 35.6159 42.1073 34.3689 42.1987 33.7462C42.2013 32.426 42.0837 30.8635 41.9465 29.1506C41.9361 29.0218 41.9257 28.8921 41.9152 28.7617C41.7857 27.1507 41.6469 25.4249 41.5859 23.6888C41.4562 19.9977 41.6717 16.1642 43.1379 13.1753C43.1232 12.4156 42.8527 12.1111 42.5742 11.9852C42.2208 11.8254 41.6386 11.8459 40.8831 12.1441C39.393 12.7323 37.6455 14.2417 36.7751 16.051C36.2869 17.0659 35.948 18.504 35.7313 19.7221C35.6241 20.3245 35.5488 20.861 35.5003 21.2466C35.4761 21.4393 35.4586 21.594 35.4472 21.6999C35.4416 21.7529 35.4374 21.7937 35.4347 21.821L35.4317 21.8515L35.431 21.8589L35.4308 21.8609Z" fill="#D19643"/>
<path fill-rule="evenodd" clip-rule="evenodd" d="M16.138 30.1318L8.02548 18.6294L8.8594 18.0413L16.9719 29.5436L16.138 30.1318Z" fill="#D19643"/>
<path fill-rule="evenodd" clip-rule="evenodd" d="M21.3495 26.2571L9.79006 10.1242L10.6196 9.52985L22.179 25.6627L21.3495 26.2571Z" fill="#D19643"/>
<path fill-rule="evenodd" clip-rule="evenodd" d="M26.1211 21.7906L16.3591 7.4682L17.2023 6.89347L26.9643 21.2159L26.1211 21.7906Z" fill="#D19643"/>
<defs>
<linearGradient id="paint0_linear_5_70" x1="18.2637" y1="3.89314" x2="21.7913" y2="46.0665" gradientUnits="userSpaceOnUse">
<stop stop-color="#F6C95B"/>
<stop offset="0.777811" stop-color="#F7CA5C"/>
<stop offset="1" stop-color="#D9AA38"/>
</linearGradient>
</defs>
</svg>